<svg width="86" height="29" viewBox="0 0 86 29" fill="none" xmlns="http://www.w3.org/2000/svg">
<path d="M15.1758 15.9961H10.8984V0H15.4219C17 0 18.2617 0.140625 19.207 0.421875C20.1602 0.71875 21.0547 1.22656 21.8906 1.94531C22.4609 2.44531 22.957 3.01562 23.3789 3.65625C23.7695 4.25 24.082 4.92578 24.3164 5.68359C24.5273 6.41016 24.6328 7.16797 24.6328 7.95703C24.6328 8.69141 24.5391 9.40625 24.3516 10.1016C24.1562 10.8125 23.8828 11.4648 23.5312 12.0586C23.1719 12.668 22.7383 13.2188 22.2305 13.7109C21.7227 14.2109 21.1523 14.6328 20.5195 14.9766C19.8555 15.3438 19.1992 15.6055 18.5508 15.7617C17.9023 15.918 17.1289 15.9961 16.2305 15.9961H15.8906V11.7305H16.3359C17.1328 11.7305 17.8398 11.5781 18.457 11.2734C19.0664 10.9766 19.543 10.5469 19.8867 9.98438C20.2148 9.42969 20.3789 8.78516 20.3789 8.05078C20.3789 7.26172 20.1953 6.57031 19.8281 5.97656C19.4688 5.39844 18.9453 4.94922 18.2578 4.62891C17.5859 4.31641 16.7969 4.16016 15.8906 4.16016H15.1758V15.9961Z" fill="#F0D39F"/>
<path d="M30.0117 11.1914L32.7422 8.22656C32.4375 8.07812 32.1328 8.00391 31.8281 8.00391C31.4531 8.00391 31.1055 8.09766 30.7852 8.28516C30.457 8.48828 30.2031 8.75 30.0234 9.07031C29.8281 9.40625 29.7305 9.76172 29.7305 10.1367C29.7305 10.4727 29.8242 10.8242 30.0117 11.1914ZM35.4023 11.4023L36.3516 15.2344C35.1484 15.8984 33.8555 16.2305 32.4727 16.2305C31.207 16.2305 30.0781 15.9688 29.0859 15.4453C28.5703 15.1719 28.1172 14.8555 27.7266 14.4961C27.3359 14.1289 26.9961 13.7148 26.707 13.2539C26.1289 12.3242 25.8398 11.2969 25.8398 10.1719C25.8398 9.07812 26.1094 8.07422 26.6484 7.16016C27.1719 6.25391 27.9023 5.52734 28.8398 4.98047C29.7695 4.44922 30.7812 4.18359 31.875 4.18359C32.9375 4.18359 33.918 4.42969 34.8164 4.92188C35.2617 5.16406 35.668 5.46094 36.0352 5.8125C36.4023 6.16406 36.7305 6.57422 37.0195 7.04297L32.1445 12.3164C32.3242 12.3633 32.4922 12.3867 32.6484 12.3867C33.4922 12.3867 34.4102 12.0586 35.4023 11.4023Z" fill="#F0D39F"/>
<path d="M37.9805 4.92188V4.38281H41.9062L41.8945 4.78125V5.84766C41.8945 6.63672 41.918 7.34766 41.9648 7.98047C42.0117 8.63672 42.0859 9.19531 42.1875 9.65625C42.2969 10.1484 42.4258 10.5781 42.5742 10.9453C42.7383 11.3438 42.9453 11.7461 43.1953 12.1523C43.6797 11.4102 44.0156 10.5703 44.2031 9.63281C44.3906 8.70312 44.4844 7.4375 44.4844 5.83594V4.78125L44.4727 4.38281H48.3984V4.92188C48.3984 6.05469 48.3672 7.11328 48.3047 8.09766C48.25 8.98047 48.1523 9.76953 48.0117 10.4648C47.8633 11.1523 47.6602 11.8164 47.4023 12.457C47.1523 13.0742 46.8516 13.6641 46.5 14.2266C46.1484 14.7812 45.6875 15.3711 45.1172 15.9961H41.2617C40.5977 15.2461 40.0586 14.5312 39.6445 13.8516C39.2383 13.1719 38.9102 12.4102 38.6602 11.5664C38.418 10.7227 38.2422 9.77344 38.1328 8.71875C38.0312 7.70312 37.9805 6.4375 37.9805 4.92188Z" fill="#F0D39F"/>
<path d="M10.3125 23.7422V28.0781C9.67188 28.2344 9.03516 28.3125 8.40234 28.3125C7.62109 28.3125 6.88281 28.2305 6.1875 28.0664C5.78125 27.9648 5.44531 27.8633 5.17969 27.7617C4.91406 27.6523 4.60938 27.5039 4.26562 27.3164C3.625 26.957 3.05859 26.5391 2.56641 26.0625C1.73047 25.25 1.09766 24.3203 0.667969 23.2734C0.222656 22.2266 0 21.1328 0 19.9922C0 18.4766 0.375 17.082 1.125 15.8086C1.85938 14.5352 2.87109 13.5273 4.16016 12.7852C5.43359 12.0508 6.82812 11.6836 8.34375 11.6836C9 11.6836 9.65625 11.7695 10.3125 11.9414V16.2656C9.96094 16.1562 9.63281 16.0742 9.32812 16.0195C9.04688 15.9648 8.74219 15.9375 8.41406 15.9375C7.65625 15.9375 6.95703 16.1172 6.31641 16.4766C5.66797 16.8438 5.16406 17.332 4.80469 17.9414C4.4375 18.5664 4.25391 19.2539 4.25391 20.0039C4.25391 20.7539 4.4375 21.4414 4.80469 22.0664C5.17188 22.6992 5.67969 23.1875 6.32812 23.5312C6.96875 23.8906 7.68359 24.0703 8.47266 24.0703C9.01953 24.0703 9.63281 23.9609 10.3125 23.7422Z" fill="#F0D39F"/>
<path d="M15.4219 22.2188C15.4219 22.6094 15.5195 22.9609 15.7148 23.2734C15.9023 23.6016 16.1602 23.8594 16.4883 24.0469C16.8164 24.2344 17.168 24.3281 17.543 24.3281C17.918 24.3281 18.2695 24.2344 18.5977 24.0469C18.918 23.8594 19.1797 23.6016 19.3828 23.2734C19.5703 22.9531 19.6641 22.6016 19.6641 22.2188C19.6641 21.8359 19.5703 21.4805 19.3828 21.1523C19.1875 20.832 18.9297 20.5742 18.6094 20.3789C18.2812 20.1914 17.9258 20.0977 17.543 20.0977C17.1602 20.0977 16.8086 20.1914 16.4883 20.3789C16.1602 20.5742 15.9023 20.832 15.7148 21.1523C15.5195 21.4727 15.4219 21.8281 15.4219 22.2188ZM11.5195 22.2188C11.5195 21.3906 11.6758 20.6133 11.9883 19.8867C12.3086 19.1445 12.7422 18.5 13.2891 17.9531C13.8438 17.3984 14.4883 16.9648 15.2227 16.6523C15.9492 16.3477 16.7227 16.1953 17.543 16.1953C18.3867 16.1953 19.1719 16.3516 19.8984 16.6641C20.6406 16.9766 21.2773 17.4023 21.8086 17.9414C22.3555 18.4883 22.7852 19.125 23.0977 19.8516C23.4102 20.5781 23.5664 21.3672 23.5664 22.2188C23.5664 23.0547 23.4102 23.832 23.0977 24.5508C22.7773 25.2852 22.3477 25.9219 21.8086 26.4609C21.2695 27 20.625 27.4297 19.875 27.75C19.125 28.0703 18.3477 28.2305 17.543 28.2305C16.4414 28.2305 15.4336 27.9609 14.5195 27.4219C13.5977 26.8828 12.8672 26.1523 12.3281 25.2305C11.7891 24.3164 11.5195 23.3125 11.5195 22.2188Z" fill="#F0D39F"/>
<path d="M29.168 27.9961H25.2539V22.2305C25.2539 21.3789 25.3125 20.6797 25.4297 20.1328C25.5469 19.6016 25.7578 19.082 26.0625 18.5742C26.5469 17.8086 27.1758 17.2227 27.9492 16.8164C28.7305 16.4023 29.582 16.1953 30.5039 16.1953C31.5742 16.1953 32.5391 16.4609 33.3984 16.9922C34.2578 17.5312 34.8906 18.2578 35.2969 19.1719C35.4922 19.5703 35.625 19.9844 35.6953 20.4141C35.7656 20.8359 35.8008 21.4414 35.8008 22.2305V27.9961H31.8867V21.832C31.8711 20.6445 31.418 20.0508 30.5273 20.0508C29.6211 20.0508 29.168 20.6445 29.168 21.832V27.9961Z" fill="#F0D39F"/>
<path d="M41.9648 27.9961H38.0508V22.2305C38.0508 21.3789 38.1094 20.6797 38.2266 20.1328C38.3438 19.6016 38.5547 19.082 38.8594 18.5742C39.3438 17.8086 39.9727 17.2227 40.7461 16.8164C41.5273 16.4023 42.3789 16.1953 43.3008 16.1953C44.3711 16.1953 45.3359 16.4609 46.1953 16.9922C47.0547 17.5312 47.6875 18.2578 48.0938 19.1719C48.2891 19.5703 48.4219 19.9844 48.4922 20.4141C48.5625 20.8359 48.5977 21.4414 48.5977 22.2305V27.9961H44.6836V21.832C44.668 20.6445 44.2148 20.0508 43.3242 20.0508C42.418 20.0508 41.9648 20.6445 41.9648 21.832V27.9961Z" fill="#F0D39F"/>
<path d="M54.457 23.1914L57.1875 20.2266C56.8828 20.0781 56.5781 20.0039 56.2734 20.0039C55.8984 20.0039 55.5508 20.0977 55.2305 20.2852C54.9023 20.4883 54.6484 20.75 54.4688 21.0703C54.2734 21.4062 54.1758 21.7617 54.1758 22.1367C54.1758 22.4727 54.2695 22.8242 54.457 23.1914ZM59.8477 23.4023L60.7969 27.2344C59.5938 27.8984 58.3008 28.2305 56.918 28.2305C55.6523 28.2305 54.5234 27.9688 53.5312 27.4453C53.0156 27.1719 52.5625 26.8555 52.1719 26.4961C51.7812 26.1289 51.4414 25.7148 51.1523 25.2539C50.5742 24.3242 50.2852 23.2969 50.2852 22.1719C50.2852 21.0781 50.5547 20.0742 51.0938 19.1602C51.6172 18.2539 52.3477 17.5273 53.2852 16.9805C54.2148 16.4492 55.2266 16.1836 56.3203 16.1836C57.3828 16.1836 58.3633 16.4297 59.2617 16.9219C59.707 17.1641 60.1133 17.4609 60.4805 17.8125C60.8477 18.1641 61.1758 18.5742 61.4648 19.043L56.5898 24.3164C56.7695 24.3633 56.9375 24.3867 57.0938 24.3867C57.9375 24.3867 58.8555 24.0586 59.8477 23.4023Z" fill="#F0D39F"/>
<path d="M69.6797 23.707L71.5898 27.1523C70.5664 27.8711 69.4062 28.2305 68.1094 28.2305C67.0391 28.2305 66.0508 27.9609 65.1445 27.4219C64.2383 26.8828 63.5234 26.1523 63 25.2305C62.4609 24.3008 62.1914 23.2969 62.1914 22.2188C62.1914 21.1172 62.4609 20.1055 63 19.1836C63.5234 18.2617 64.25 17.5312 65.1797 16.9922C66.1094 16.4609 67.1211 16.1953 68.2148 16.1953C69.4336 16.1953 70.5625 16.5547 71.6016 17.2734L69.6797 20.7188C69.4297 20.5 69.1914 20.3438 68.9648 20.25C68.7461 20.1562 68.4883 20.1094 68.1914 20.1094C67.8086 20.1094 67.4531 20.2031 67.125 20.3906C66.7891 20.5781 66.5312 20.832 66.3516 21.1523C66.1641 21.4805 66.0703 21.8359 66.0703 22.2188C66.0703 22.6094 66.168 22.9648 66.3633 23.2852C66.5508 23.6133 66.8086 23.8711 67.1367 24.0586C67.4648 24.2461 67.8203 24.3398 68.2031 24.3398C68.4922 24.3398 68.75 24.2891 68.9766 24.1875C69.2266 24.0781 69.4609 23.918 69.6797 23.707Z" fill="#F0D39F"/>
<path d="M76.8164 16.3828H78.9727V20.2969H76.8164V22.6875C76.8164 23.2734 76.9414 23.7031 77.1914 23.9766C77.4336 24.2422 77.8281 24.375 78.375 24.375C78.4219 24.375 78.6211 24.3555 78.9727 24.3164V28.1836C78.6445 28.2227 78.3867 28.2422 78.1992 28.2422C77.6211 28.2422 77.0742 28.1602 76.5586 27.9961C76.0352 27.8398 75.5547 27.6055 75.1172 27.293C74.6797 26.9961 74.293 26.625 73.957 26.1797C73.6836 25.7969 73.4688 25.418 73.3125 25.043C73.1641 24.6836 73.0586 24.2539 72.9961 23.7539C72.9336 23.2305 72.9023 22.5898 72.9023 21.832V12.9609H76.8164V16.3828Z" fill="#F0D39F"/>
<path d="M80.7539 25.8516C80.7539 25.3906 80.8633 24.9766 81.082 24.6094C81.3008 24.2344 81.5977 23.9375 81.9727 23.7188C82.3398 23.5 82.75 23.3906 83.2031 23.3906C83.6641 23.3906 84.0781 23.5 84.4453 23.7188C84.8203 23.9375 85.1172 24.2344 85.3359 24.6094C85.5547 24.9766 85.6641 25.3906 85.6641 25.8516C85.6641 26.5312 85.4258 27.1094 84.9492 27.5859C84.4648 28.0703 83.8828 28.3125 83.2031 28.3125C82.5391 28.3125 81.9648 28.0664 81.4805 27.5742C80.9961 27.0898 80.7539 26.5156 80.7539 25.8516Z" fill="#F0D39F"/>
</svg>
