<svg width="87" height="29" viewBox="0 0 87 29" fill="none" xmlns="http://www.w3.org/2000/svg">
<path d="M15.8203 16H11.543V0.00390625H16.0664C17.6445 0.00390625 18.9062 0.144531 19.8516 0.425781C20.8047 0.722656 21.6992 1.23047 22.5352 1.94922C23.1055 2.44922 23.6016 3.01953 24.0234 3.66016C24.4141 4.25391 24.7266 4.92969 24.9609 5.6875C25.1719 6.41406 25.2773 7.17188 25.2773 7.96094C25.2773 8.69531 25.1836 9.41016 24.9961 10.1055C24.8008 10.8164 24.5273 11.4688 24.1758 12.0625C23.8164 12.6719 23.3828 13.2227 22.875 13.7148C22.3672 14.2148 21.7969 14.6367 21.1641 14.9805C20.5 15.3477 19.8438 15.6094 19.1953 15.7656C18.5469 15.9219 17.7734 16 16.875 16H16.5352V11.7344H16.9805C17.7773 11.7344 18.4844 11.582 19.1016 11.2773C19.7109 10.9805 20.1875 10.5508 20.5312 9.98828C20.8594 9.43359 21.0234 8.78906 21.0234 8.05469C21.0234 7.26562 20.8398 6.57422 20.4727 5.98047C20.1133 5.40234 19.5898 4.95312 18.9023 4.63281C18.2305 4.32031 17.4414 4.16406 16.5352 4.16406H15.8203V16Z" fill="#122332"/>
<path d="M30.6562 11.1953L33.3867 8.23047C33.082 8.08203 32.7773 8.00781 32.4727 8.00781C32.0977 8.00781 31.75 8.10156 31.4297 8.28906C31.1016 8.49219 30.8477 8.75391 30.668 9.07422C30.4727 9.41016 30.375 9.76562 30.375 10.1406C30.375 10.4766 30.4688 10.8281 30.6562 11.1953ZM36.0469 11.4062L36.9961 15.2383C35.793 15.9023 34.5 16.2344 33.1172 16.2344C31.8516 16.2344 30.7227 15.9727 29.7305 15.4492C29.2148 15.1758 28.7617 14.8594 28.3711 14.5C27.9805 14.1328 27.6406 13.7188 27.3516 13.2578C26.7734 12.3281 26.4844 11.3008 26.4844 10.1758C26.4844 9.08203 26.7539 8.07812 27.293 7.16406C27.8164 6.25781 28.5469 5.53125 29.4844 4.98438C30.4141 4.45312 31.4258 4.1875 32.5195 4.1875C33.582 4.1875 34.5625 4.43359 35.4609 4.92578C35.9062 5.16797 36.3125 5.46484 36.6797 5.81641C37.0469 6.16797 37.375 6.57812 37.6641 7.04688L32.7891 12.3203C32.9688 12.3672 33.1367 12.3906 33.293 12.3906C34.1367 12.3906 35.0547 12.0625 36.0469 11.4062Z" fill="#122332"/>
<path d="M38.625 4.92578V4.38672H42.5508L42.5391 4.78516V5.85156C42.5391 6.64062 42.5625 7.35156 42.6094 7.98438C42.6562 8.64062 42.7305 9.19922 42.832 9.66016C42.9414 10.1523 43.0703 10.582 43.2188 10.9492C43.3828 11.3477 43.5898 11.75 43.8398 12.1562C44.3242 11.4141 44.6602 10.5742 44.8477 9.63672C45.0352 8.70703 45.1289 7.44141 45.1289 5.83984V4.78516L45.1172 4.38672H49.043V4.92578C49.043 6.05859 49.0117 7.11719 48.9492 8.10156C48.8945 8.98438 48.7969 9.77344 48.6562 10.4688C48.5078 11.1562 48.3047 11.8203 48.0469 12.4609C47.7969 13.0781 47.4961 13.668 47.1445 14.2305C46.793 14.7852 46.332 15.375 45.7617 16H41.9062C41.2422 15.25 40.7031 14.5352 40.2891 13.8555C39.8828 13.1758 39.5547 12.4141 39.3047 11.5703C39.0625 10.7266 38.8867 9.77734 38.7773 8.72266C38.6758 7.70703 38.625 6.44141 38.625 4.92578Z" fill="#122332"/>
<path d="M10.957 23.7461V28.082C10.3164 28.2383 9.67969 28.3164 9.04688 28.3164C8.26562 28.3164 7.52734 28.2344 6.83203 28.0703C6.42578 27.9688 6.08984 27.8672 5.82422 27.7656C5.55859 27.6562 5.25391 27.5078 4.91016 27.3203C4.26953 26.9609 3.70312 26.543 3.21094 26.0664C2.375 25.2539 1.74219 24.3242 1.3125 23.2773C0.867188 22.2305 0.644531 21.1367 0.644531 19.9961C0.644531 18.4805 1.01953 17.0859 1.76953 15.8125C2.50391 14.5391 3.51562 13.5312 4.80469 12.7891C6.07812 12.0547 7.47266 11.6875 8.98828 11.6875C9.64453 11.6875 10.3008 11.7734 10.957 11.9453V16.2695C10.6055 16.1602 10.2773 16.0781 9.97266 16.0234C9.69141 15.9688 9.38672 15.9414 9.05859 15.9414C8.30078 15.9414 7.60156 16.1211 6.96094 16.4805C6.3125 16.8477 5.80859 17.3359 5.44922 17.9453C5.08203 18.5703 4.89844 19.2578 4.89844 20.0078C4.89844 20.7578 5.08203 21.4453 5.44922 22.0703C5.81641 22.7031 6.32422 23.1914 6.97266 23.5352C7.61328 23.8945 8.32812 24.0742 9.11719 24.0742C9.66406 24.0742 10.2773 23.9648 10.957 23.7461Z" fill="#122332"/>
<path d="M16.0664 22.2227C16.0664 22.6133 16.1641 22.9648 16.3594 23.2773C16.5469 23.6055 16.8047 23.8633 17.1328 24.0508C17.4609 24.2383 17.8125 24.332 18.1875 24.332C18.5625 24.332 18.9141 24.2383 19.2422 24.0508C19.5625 23.8633 19.8242 23.6055 20.0273 23.2773C20.2148 22.957 20.3086 22.6055 20.3086 22.2227C20.3086 21.8398 20.2148 21.4844 20.0273 21.1562C19.832 20.8359 19.5742 20.5781 19.2539 20.3828C18.9258 20.1953 18.5703 20.1016 18.1875 20.1016C17.8047 20.1016 17.4531 20.1953 17.1328 20.3828C16.8047 20.5781 16.5469 20.8359 16.3594 21.1562C16.1641 21.4766 16.0664 21.832 16.0664 22.2227ZM12.1641 22.2227C12.1641 21.3945 12.3203 20.6172 12.6328 19.8906C12.9531 19.1484 13.3867 18.5039 13.9336 17.957C14.4883 17.4023 15.1328 16.9688 15.8672 16.6562C16.5938 16.3516 17.3672 16.1992 18.1875 16.1992C19.0312 16.1992 19.8164 16.3555 20.543 16.668C21.2852 16.9805 21.9219 17.4062 22.4531 17.9453C23 18.4922 23.4297 19.1289 23.7422 19.8555C24.0547 20.582 24.2109 21.3711 24.2109 22.2227C24.2109 23.0586 24.0547 23.8359 23.7422 24.5547C23.4219 25.2891 22.9922 25.9258 22.4531 26.4648C21.9141 27.0039 21.2695 27.4336 20.5195 27.7539C19.7695 28.0742 18.9922 28.2344 18.1875 28.2344C17.0859 28.2344 16.0781 27.9648 15.1641 27.4258C14.2422 26.8867 13.5117 26.1562 12.9727 25.2344C12.4336 24.3203 12.1641 23.3164 12.1641 22.2227Z" fill="#122332"/>
<path d="M29.8125 28H25.8984V22.2344C25.8984 21.3828 25.957 20.6836 26.0742 20.1367C26.1914 19.6055 26.4023 19.0859 26.707 18.5781C27.1914 17.8125 27.8203 17.2266 28.5938 16.8203C29.375 16.4062 30.2266 16.1992 31.1484 16.1992C32.2188 16.1992 33.1836 16.4648 34.043 16.9961C34.9023 17.5352 35.5352 18.2617 35.9414 19.1758C36.1367 19.5742 36.2695 19.9883 36.3398 20.418C36.4102 20.8398 36.4453 21.4453 36.4453 22.2344V28H32.5312V21.8359C32.5156 20.6484 32.0625 20.0547 31.1719 20.0547C30.2656 20.0547 29.8125 20.6484 29.8125 21.8359V28Z" fill="#122332"/>
<path d="M42.6094 28H38.6953V22.2344C38.6953 21.3828 38.7539 20.6836 38.8711 20.1367C38.9883 19.6055 39.1992 19.0859 39.5039 18.5781C39.9883 17.8125 40.6172 17.2266 41.3906 16.8203C42.1719 16.4062 43.0234 16.1992 43.9453 16.1992C45.0156 16.1992 45.9805 16.4648 46.8398 16.9961C47.6992 17.5352 48.332 18.2617 48.7383 19.1758C48.9336 19.5742 49.0664 19.9883 49.1367 20.418C49.207 20.8398 49.2422 21.4453 49.2422 22.2344V28H45.3281V21.8359C45.3125 20.6484 44.8594 20.0547 43.9688 20.0547C43.0625 20.0547 42.6094 20.6484 42.6094 21.8359V28Z" fill="#122332"/>
<path d="M55.1016 23.1953L57.832 20.2305C57.5273 20.082 57.2227 20.0078 56.918 20.0078C56.543 20.0078 56.1953 20.1016 55.875 20.2891C55.5469 20.4922 55.293 20.7539 55.1133 21.0742C54.918 21.4102 54.8203 21.7656 54.8203 22.1406C54.8203 22.4766 54.9141 22.8281 55.1016 23.1953ZM60.4922 23.4062L61.4414 27.2383C60.2383 27.9023 58.9453 28.2344 57.5625 28.2344C56.2969 28.2344 55.168 27.9727 54.1758 27.4492C53.6602 27.1758 53.207 26.8594 52.8164 26.5C52.4258 26.1328 52.0859 25.7188 51.7969 25.2578C51.2188 24.3281 50.9297 23.3008 50.9297 22.1758C50.9297 21.082 51.1992 20.0781 51.7383 19.1641C52.2617 18.2578 52.9922 17.5312 53.9297 16.9844C54.8594 16.4531 55.8711 16.1875 56.9648 16.1875C58.0273 16.1875 59.0078 16.4336 59.9062 16.9258C60.3516 17.168 60.7578 17.4648 61.125 17.8164C61.4922 18.168 61.8203 18.5781 62.1094 19.0469L57.2344 24.3203C57.4141 24.3672 57.582 24.3906 57.7383 24.3906C58.582 24.3906 59.5 24.0625 60.4922 23.4062Z" fill="#122332"/>
<path d="M70.3242 23.7109L72.2344 27.1562C71.2109 27.875 70.0508 28.2344 68.7539 28.2344C67.6836 28.2344 66.6953 27.9648 65.7891 27.4258C64.8828 26.8867 64.168 26.1562 63.6445 25.2344C63.1055 24.3047 62.8359 23.3008 62.8359 22.2227C62.8359 21.1211 63.1055 20.1094 63.6445 19.1875C64.168 18.2656 64.8945 17.5352 65.8242 16.9961C66.7539 16.4648 67.7656 16.1992 68.8594 16.1992C70.0781 16.1992 71.207 16.5586 72.2461 17.2773L70.3242 20.7227C70.0742 20.5039 69.8359 20.3477 69.6094 20.2539C69.3906 20.1602 69.1328 20.1133 68.8359 20.1133C68.4531 20.1133 68.0977 20.207 67.7695 20.3945C67.4336 20.582 67.1758 20.8359 66.9961 21.1562C66.8086 21.4844 66.7148 21.8398 66.7148 22.2227C66.7148 22.6133 66.8125 22.9688 67.0078 23.2891C67.1953 23.6172 67.4531 23.875 67.7812 24.0625C68.1094 24.25 68.4648 24.3438 68.8477 24.3438C69.1367 24.3438 69.3945 24.293 69.6211 24.1914C69.8711 24.082 70.1055 23.9219 70.3242 23.7109Z" fill="#122332"/>
<path d="M77.4609 16.3867H79.6172V20.3008H77.4609V22.6914C77.4609 23.2773 77.5859 23.707 77.8359 23.9805C78.0781 24.2461 78.4727 24.3789 79.0195 24.3789C79.0664 24.3789 79.2656 24.3594 79.6172 24.3203V28.1875C79.2891 28.2266 79.0312 28.2461 78.8438 28.2461C78.2656 28.2461 77.7188 28.1641 77.2031 28C76.6797 27.8438 76.1992 27.6094 75.7617 27.2969C75.3242 27 74.9375 26.6289 74.6016 26.1836C74.3281 25.8008 74.1133 25.4219 73.957 25.0469C73.8086 24.6875 73.7031 24.2578 73.6406 23.7578C73.5781 23.2344 73.5469 22.5938 73.5469 21.8359V12.9648H77.4609V16.3867Z" fill="#122332"/>
<path d="M81.3984 25.8555C81.3984 25.3945 81.5078 24.9805 81.7266 24.6133C81.9453 24.2383 82.2422 23.9414 82.6172 23.7227C82.9844 23.5039 83.3945 23.3945 83.8477 23.3945C84.3086 23.3945 84.7227 23.5039 85.0898 23.7227C85.4648 23.9414 85.7617 24.2383 85.9805 24.6133C86.1992 24.9805 86.3086 25.3945 86.3086 25.8555C86.3086 26.5352 86.0703 27.1133 85.5938 27.5898C85.1094 28.0742 84.5273 28.3164 83.8477 28.3164C83.1836 28.3164 82.6094 28.0703 82.125 27.5781C81.6406 27.0938 81.3984 26.5195 81.3984 25.8555Z" fill="#122332"/>
</svg>
